<?xml version="1.0" standalone="no"?>
<!DOCTYPE svg PUBLIC "-//W3C//DTD SVG 20010904//EN"
 "http://www.w3.org/TR/2001/REC-SVG-20010904/DTD/svg10.dtd">
<svg version="1.0" xmlns="http://www.w3.org/2000/svg"
 width="367.000000pt" height="367.000000pt" viewBox="0 0 367.000000 367.000000"
 preserveAspectRatio="xMidYMid meet">
<metadata>
Created by potrace 1.14, written by Peter Selinger 2001-2017
</metadata>
<g transform="translate(0.000000,367.000000) scale(0.100000,-0.100000)"
fill="#000000" stroke="none">
<path d="M1768 3655 c-2 -1 -41 -5 -88 -9 -289 -22 -573 -115 -818 -268 -386
-241 -668 -619 -781 -1048 -29 -111 -34 -135 -51 -265 -9 -59 -6 -371 3 -410
2 -11 8 -42 11 -70 10 -66 39 -182 72 -280 28 -87 131 -308 145 -313 5 -2 9
-8 9 -14 0 -13 109 -170 157 -228 165 -195 418 -390 623 -480 30 -13 62 -30
71 -37 27 -22 238 -91 404 -133 163 -40 316 -66 460 -78 162 -13 523 -6 625
13 14 2 41 6 60 9 166 20 406 82 600 153 107 39 134 52 110 53 -40 2 -99 13
-138 26 -23 8 -51 14 -62 14 -48 0 -305 113 -298 131 2 3 39 35 83 70 326 261
551 622 634 1016 31 142 32 151 36 338 3 171 -5 260 -41 420 -107 485 -424
904 -879 1161 -202 115 -487 202 -715 219 -113 8 -228 13 -232 10z"/>
</g>
</svg>
